<svg xmlns="http://www.w3.org/2000/svg" xmlns:xlink="http://www.w3.org/1999/xlink" width="500" zoomAndPan="magnify" viewBox="0 0 375 374.999991" height="500" preserveAspectRatio="xMidYMid meet" version="1.0"><defs><clipPath id="988badef12"><path d="M 81.46875 66.007812 L 293.71875 66.007812 L 293.71875 309.007812 L 81.46875 309.007812 Z M 81.46875 66.007812 " clip-rule="nonzero"/></clipPath></defs><g clip-path="url(#988badef12)"><path fill="#bb902e" d="M 187.59375 309.007812 C 175.777344 309.007812 162.984375 304.148438 149.605469 294.476562 C 138.273438 286.3125 126.890625 274.890625 116.675781 261.527344 C 94.644531 232.65625 81.507812 199.414062 81.507812 172.636719 C 81.507812 113.832031 129.082031 66.007812 187.59375 66.007812 C 246.109375 66.007812 293.679688 113.832031 293.679688 172.636719 C 293.679688 199.414062 280.546875 232.65625 258.515625 261.527344 C 248.300781 274.9375 236.917969 286.3125 225.585938 294.476562 C 212.207031 304.148438 199.414062 309.007812 187.59375 309.007812 Z M 187.59375 309.007812 " fill-opacity="1" fill-rule="nonzero"/></g><path fill="#00a14b" d="M 280.207031 172.636719 C 280.207031 224.105469 224.660156 295.59375 187.546875 295.59375 C 150.433594 295.59375 94.933594 224.105469 94.933594 172.636719 C 94.933594 121.167969 136.425781 79.421875 187.59375 79.421875 C 238.765625 79.421875 280.207031 121.167969 280.207031 172.636719 Z M 280.207031 172.636719 " fill-opacity="1" fill-rule="nonzero"/><path fill="#000000" d="M 167.464844 160.597656 C 168.34375 161.785156 169.179688 163 169.976562 164.242188 C 170.773438 165.484375 171.527344 166.746094 172.234375 168.027344 C 172.9375 169.308594 173.597656 170.605469 174.207031 171.914062 C 174.8125 173.226562 175.371094 174.542969 175.878906 175.867188 C 176.382812 177.195312 176.832031 178.523438 177.230469 179.851562 C 177.628906 181.179688 177.96875 182.5 178.253906 183.820312 C 178.539062 185.136719 178.769531 186.445312 178.9375 187.742188 C 179.109375 189.035156 179.222656 190.3125 179.277344 191.574219 C 179.332031 192.835938 179.328125 194.070312 179.261719 195.285156 C 179.199219 196.496094 179.078125 197.679688 178.902344 198.835938 C 178.722656 199.988281 178.484375 201.105469 178.191406 202.191406 C 177.898438 203.273438 177.550781 204.316406 177.144531 205.320312 C 176.738281 206.324219 176.277344 207.28125 175.765625 208.195312 C 175.253906 209.109375 174.6875 209.972656 174.070312 210.785156 C 173.457031 211.597656 172.792969 212.359375 172.078125 213.066406 C 171.367188 213.773438 170.605469 214.425781 169.804688 215.015625 C 169 215.609375 168.15625 216.144531 167.269531 216.617188 C 166.386719 217.09375 165.464844 217.503906 164.503906 217.855469 C 163.542969 218.203125 162.550781 218.488281 161.527344 218.710938 C 160.503906 218.933594 159.453125 219.09375 158.375 219.1875 C 157.296875 219.28125 156.195312 219.308594 155.070312 219.269531 C 153.949219 219.234375 152.808594 219.128906 151.652344 218.964844 C 150.496094 218.796875 149.328125 218.566406 148.148438 218.269531 C 146.96875 217.972656 145.785156 217.613281 144.59375 217.195312 C 143.40625 216.773438 142.214844 216.289062 141.027344 215.746094 C 139.835938 215.203125 138.652344 214.605469 137.476562 213.945312 C 136.296875 213.285156 135.128906 212.570312 133.976562 211.804688 C 132.820312 211.035156 131.683594 210.214844 130.5625 209.34375 C 129.445312 208.472656 128.347656 207.550781 127.269531 206.585938 C 126.195312 205.621094 125.148438 204.613281 124.128906 203.5625 C 123.109375 202.511719 122.121094 201.425781 121.167969 200.300781 C 120.214844 199.175781 119.296875 198.015625 118.417969 196.828125 C 117.535156 195.640625 116.699219 194.425781 115.902344 193.183594 C 115.105469 191.941406 114.351562 190.679688 113.648438 189.398438 C 112.941406 188.117188 112.285156 186.820312 111.675781 185.511719 C 111.066406 184.199219 110.507812 182.882812 110.003906 181.554688 C 109.496094 180.230469 109.046875 178.902344 108.648438 177.574219 C 108.25 176.246094 107.910156 174.925781 107.625 173.605469 C 107.339844 172.289062 107.113281 170.980469 106.941406 169.683594 C 106.769531 168.390625 106.65625 167.113281 106.605469 165.851562 C 106.550781 164.589844 106.554688 163.355469 106.617188 162.140625 C 106.679688 160.929688 106.800781 159.746094 106.980469 158.589844 C 107.160156 157.4375 107.394531 156.320312 107.6875 155.234375 C 107.980469 154.152344 108.332031 153.109375 108.738281 152.105469 C 109.140625 151.101562 109.601562 150.144531 110.113281 149.230469 C 110.628906 148.316406 111.191406 147.453125 111.808594 146.640625 C 112.425781 145.828125 113.089844 145.066406 113.800781 144.359375 C 114.515625 143.652344 115.273438 143 116.078125 142.410156 C 116.878906 141.816406 117.722656 141.28125 118.609375 140.808594 C 119.496094 140.332031 120.417969 139.921875 121.375 139.570312 C 122.335938 139.222656 123.328125 138.933594 124.351562 138.710938 C 125.375 138.492188 126.425781 138.332031 127.503906 138.238281 C 128.585938 138.144531 129.683594 138.117188 130.808594 138.15625 C 131.929688 138.191406 133.070312 138.292969 134.226562 138.460938 C 135.382812 138.628906 136.550781 138.859375 137.730469 139.15625 C 138.910156 139.453125 140.09375 139.8125 141.285156 140.230469 C 142.476562 140.652344 143.664062 141.136719 144.855469 141.679688 C 146.042969 142.21875 147.226562 142.820312 148.40625 143.480469 C 149.582031 144.140625 150.75 144.851562 151.902344 145.621094 C 153.058594 146.390625 154.195312 147.210938 155.316406 148.082031 C 156.4375 148.953125 157.535156 149.871094 158.609375 150.839844 C 159.683594 151.804688 160.730469 152.8125 161.75 153.863281 C 162.769531 154.914062 163.757812 156 164.710938 157.125 C 165.667969 158.25 166.582031 159.40625 167.464844 160.597656 Z M 167.464844 160.597656 " fill-opacity="1" fill-rule="nonzero"/><path fill="#000000" d="M 259.105469 142.398438 C 259.910156 142.988281 260.667969 143.640625 261.382812 144.347656 C 262.09375 145.054688 262.757812 145.816406 263.375 146.628906 C 263.992188 147.441406 264.554688 148.304688 265.070312 149.21875 C 265.582031 150.132812 266.042969 151.089844 266.445312 152.09375 C 266.851562 153.097656 267.203125 154.140625 267.496094 155.222656 C 267.789062 156.308594 268.023438 157.425781 268.203125 158.578125 C 268.382812 159.734375 268.503906 160.917969 268.566406 162.128906 C 268.628906 163.34375 268.632812 164.578125 268.578125 165.839844 C 268.523438 167.101562 268.414062 168.378906 268.242188 169.671875 C 268.070312 170.96875 267.84375 172.277344 267.558594 173.59375 C 267.273438 174.914062 266.929688 176.234375 266.535156 177.5625 C 266.136719 178.890625 265.683594 180.21875 265.179688 181.542969 C 264.675781 182.871094 264.117188 184.1875 263.507812 185.5 C 262.898438 186.808594 262.242188 188.105469 261.535156 189.386719 C 260.828125 190.667969 260.078125 191.929688 259.28125 193.171875 C 258.484375 194.414062 257.644531 195.628906 256.765625 196.816406 C 255.886719 198.007812 254.96875 199.164062 254.015625 200.289062 C 253.0625 201.414062 252.074219 202.5 251.054688 203.550781 C 250.035156 204.601562 248.988281 205.609375 247.910156 206.574219 C 246.835938 207.542969 245.738281 208.460938 244.617188 209.332031 C 243.5 210.203125 242.363281 211.023438 241.207031 211.792969 C 240.050781 212.5625 238.886719 213.273438 237.707031 213.933594 C 236.53125 214.59375 235.347656 215.195312 234.15625 215.734375 C 232.96875 216.277344 231.777344 216.761719 230.585938 217.183594 C 229.398438 217.601562 228.214844 217.960938 227.035156 218.257812 C 225.855469 218.554688 224.6875 218.785156 223.53125 218.953125 C 222.375 219.117188 221.234375 219.222656 220.109375 219.257812 C 218.988281 219.296875 217.886719 219.269531 216.808594 219.175781 C 215.730469 219.082031 214.679688 218.921875 213.65625 218.699219 C 212.628906 218.476562 211.640625 218.191406 210.679688 217.84375 C 209.71875 217.492188 208.796875 217.082031 207.910156 216.605469 C 207.027344 216.132812 206.183594 215.597656 205.378906 215.003906 C 204.574219 214.414062 203.816406 213.761719 203.105469 213.054688 C 202.390625 212.347656 201.726562 211.585938 201.109375 210.773438 C 200.496094 209.960938 199.929688 209.097656 199.417969 208.183594 C 198.902344 207.269531 198.445312 206.3125 198.039062 205.308594 C 197.632812 204.304688 197.285156 203.261719 196.992188 202.179688 C 196.695312 201.09375 196.460938 199.976562 196.28125 198.824219 C 196.101562 197.667969 195.980469 196.484375 195.917969 195.273438 C 195.855469 194.058594 195.851562 192.824219 195.90625 191.5625 C 195.960938 190.300781 196.074219 189.023438 196.242188 187.730469 C 196.414062 186.433594 196.640625 185.125 196.929688 183.808594 C 197.214844 182.488281 197.554688 181.167969 197.953125 179.839844 C 198.347656 178.511719 198.800781 177.183594 199.304688 175.859375 C 199.8125 174.53125 200.367188 173.214844 200.976562 171.902344 C 201.585938 170.59375 202.242188 169.296875 202.949219 168.015625 C 203.65625 166.734375 204.40625 165.472656 205.203125 164.230469 C 206 162.988281 206.839844 161.773438 207.71875 160.585938 C 208.597656 159.398438 209.515625 158.238281 210.472656 157.113281 C 211.425781 155.988281 212.414062 154.902344 213.433594 153.851562 C 214.453125 152.800781 215.5 151.792969 216.574219 150.828125 C 217.648438 149.863281 218.746094 148.941406 219.867188 148.070312 C 220.988281 147.199219 222.125 146.378906 223.277344 145.609375 C 224.433594 144.84375 225.601562 144.128906 226.777344 143.46875 C 227.957031 142.808594 229.140625 142.210938 230.328125 141.667969 C 231.519531 141.125 232.707031 140.640625 233.898438 140.21875 C 235.089844 139.800781 236.273438 139.441406 237.453125 139.144531 C 238.628906 138.847656 239.796875 138.617188 240.953125 138.449219 C 242.113281 138.285156 243.25 138.179688 244.375 138.144531 C 245.496094 138.105469 246.597656 138.132812 247.675781 138.226562 C 248.757812 138.320312 249.808594 138.480469 250.832031 138.703125 C 251.855469 138.925781 252.847656 139.210938 253.804688 139.558594 C 254.765625 139.910156 255.6875 140.320312 256.574219 140.796875 C 257.460938 141.269531 258.304688 141.804688 259.105469 142.398438 Z M 259.105469 142.398438 " fill-opacity="1" fill-rule="nonzero"/><path fill="#000000" d="M 187.59375 76.066406 C 134.675781 76.066406 91.578125 119.371094 91.578125 172.585938 C 91.578125 197.226562 103.933594 228.1875 124.652344 255.402344 C 145.425781 282.667969 168.917969 298.898438 187.546875 298.898438 C 206.175781 298.898438 229.671875 282.617188 250.441406 255.402344 C 271.160156 228.1875 283.515625 197.226562 283.515625 172.585938 C 283.613281 119.371094 240.515625 76.066406 187.59375 76.066406 Z M 245.136719 251.367188 C 225.925781 276.59375 203.890625 292.242188 187.59375 292.242188 C 171.300781 292.242188 149.21875 276.59375 130.054688 251.367188 C 110.207031 225.320312 98.339844 195.867188 98.339844 172.636719 C 98.339844 123.113281 138.371094 82.824219 187.644531 82.824219 C 236.867188 82.824219 276.949219 123.113281 276.949219 172.636719 C 276.851562 195.867188 265.03125 225.320312 245.136719 251.367188 Z M 245.136719 251.367188 " fill-opacity="1" fill-rule="nonzero"/></svg>